<mxfile host="app.diagrams.net" modified="2023-10-21T00:21:07.518Z" agent="Mozilla/5.0 (Windows NT 10.0; Win64; x64) AppleWebKit/537.36 (KHTML, like Gecko) Chrome/117.0.0.0 Safari/537.36" version="22.0.6" etag="nTAYNZLJEdTYKtF7-mNt" type="github">
  <diagram name="PÃ¡gina-1" id="5RMRvCzeQx5K3Gg_8Qvw">
    <mxGraphModel>
      <root>
        <mxCell id="0" />
        <mxCell id="1" parent="0" />
      </root>
    </mxGraphModel>
  </diagram>
</mxfile>
